# xmcd
#
# Track frame offsets:
#	150
#	25341
#	39085
#	60109
#	85001
#	102002
#	125314
#	149801
#	170768
#	189568
#	213767
#	225699
#	240400
#
# Disc length: 3435 seconds
#
# Revision: 0
# Processed by: cddbd v1.5.1PL0 Copyright (c) Steve Scherf et al.
# Submitted via: dBpowerAMP V4.0
#
DISCID=a00d690d
DTITLE=Luther guitar jr johson - Luthers's Blues
DYEAR=1976
DGENRE=Blues
TTITLE0=Back at the chicken shack
TTITLE1=You'd better watch yourself
TTITLE2=Mother-in-law Blues
TTITLE3=Luther's Blues
TTITLE4=Little queenie
TTITLE5=Too many drivers
TTITLE6=I can't stop
TTITLE7=Sweet home Chicago
TTITLE8=Come baby
TTITLE9=Nobody wants to loose
TTITLE10=You'd better watch yourself
TTITLE11=Boogin' in the dark
TTITLE12=Little queenie
EXTD=
EXTT0=
EXTT1=
EXTT2=
EXTT3=
EXTT4=
EXTT5=
EXTT6=
EXTT7=
EXTT8=
EXTT9=
EXTT10=
EXTT11=
EXTT12=
PLAYORDER=
